# xmcd
#
# Track frame offsets: 
#        150
#        18507
#        41474
#        70148
#        92470
#        114777
#        133742
#        151678
#        167790
#        190297
#        209277
#        226242
#        247070
#        264633
#
# Disc length: 3735 seconds
#
# Revision: 1
# Processed by: cddbd v1.5.2PL0 Copyright (c) Steve Scherf et al.
# Submitted via: ExactAudioCopyFreeDBPlugin 1.0
#
DISCID=b40e950e
DTITLE=Joe - Greatest Hits
DYEAR=2008
DGENRE=R&B
TTITLE0=Beautiful (Main Version)
TTITLE1=Don't Wanna Be A Player
TTITLE2=All The Things (Your Man Won't Do)
TTITLE3=I Wanna Know
TTITLE4=Good Girls
TTITLE5=Ride Wit U (feat.G-Unit)
TTITLE6=Still Not A Player (Big Pun feat. Joe)
TTITLE7=Stutter (feat. Mystikal)
TTITLE8=The Love Scene
TTITLE9=All That I Am
TTITLE10=More and More
TTITLE11=Priceless
TTITLE12=If I Was Your Man (Main Version)
TTITLE13=Let's Stay Home Tonight (Album Version)
EXTD=
EXTT0=
EXTT1=
EXTT2=
EXTT3=
EXTT4=
EXTT5=
EXTT6=
EXTT7=
EXTT8=
EXTT9=
EXTT10=
EXTT11=
EXTT12=
EXTT13=
PLAYORDER=
